<svg width="833" height="155" viewBox="0 0 833 155" fill="none" xmlns="http://www.w3.org/2000/svg">
<path d="M396.657 125.467H389.984L379.159 137.678V125.467H373.787V154.34H379.159V141.55L391.082 154.34H397.716V154.009L384.001 139.448L396.657 125.632V125.467Z" fill="white"/>
<path d="M432.703 143.838H422.122L427.413 131.533L432.703 143.838ZM437.261 154.34H443.116L430.342 125.467H424.484L411.706 154.34H417.526L419.965 148.902H434.858L437.261 154.34Z" fill="white"/>
<path d="M478.475 143.372L464.52 125.467H460.165V154.339H465.537V134.874L480.511 154.339H483.846V125.467H478.475V143.372Z" fill="white"/>
<path d="M524.409 146.968C522.539 148.861 519.73 149.89 517.249 149.89C510.21 149.89 507.48 144.909 507.443 140.13C507.401 135.311 510.37 130.122 517.249 130.122C519.73 130.122 522.252 130.986 524.125 132.839L527.705 129.338C524.775 126.412 521.113 124.933 517.249 124.933C506.953 124.933 502.111 132.594 502.153 140.13C502.192 147.626 506.669 155 517.249 155C521.355 155 525.141 153.64 528.071 150.718L524.409 146.968Z" fill="white"/>
<path d="M566.519 148.987H550.528V142.478H565.953V137.414H550.528V130.738H566.519V125.466H545.198V154.339H566.519V148.987Z" fill="white"/>
<path d="M584.865 125.467V154.34H604.884V149.316H590.234V125.467H584.865Z" fill="white"/>
<path d="M640.933 143.838H630.353L635.644 131.533L640.933 143.838ZM645.491 154.34H651.347L638.573 125.467H632.714L619.936 154.34H625.753L628.196 148.902H643.088L645.491 154.34Z" fill="white"/>
<path d="M681.537 130.531C684.912 130.531 686.419 132.848 686.419 135.167C686.419 137.489 684.954 139.798 681.537 139.798H673.357V130.531H681.537ZM693.213 153.967L684.588 144.124C689.999 143.012 691.79 139.021 691.79 135.044C691.79 130.039 688.25 125.508 681.537 125.468C677.019 125.508 672.503 125.468 667.986 125.468V154.338H673.357V144.704H678.526L686.824 154.338H693.213V153.967Z" fill="white"/>
<path d="M714.978 125.467H709.649V154.34H714.978V125.467Z" fill="white"/>
<path d="M752.287 143.838H741.707L746.997 131.533L752.287 143.838ZM756.845 154.34H762.704L749.926 125.467H744.067L731.293 154.34H737.109L739.552 148.902H754.444L756.845 154.34Z" fill="white"/>
<path fill-rule="evenodd" clip-rule="evenodd" d="M786.23 30.2055L814.405 63.5417V29.2805H832.209V96.6974H820.522L789.19 59.1184V96.6974H771.386V29.2805H785.446L786.23 30.2055ZM714.345 80.2469H751.917V96.6974H696.639V29.2805H751.917V45.5441H714.345V55.1663H750.58V70.9862H714.345V80.2469ZM652.983 45.1888H622.317V29.2805H675.732H678.934H685.347L646.634 80.6969H678.934V96.6974H622.778H621.455H613.923L652.983 45.1888ZM585.154 96.6974H569.938V44.8303H548.714V29.2805H608.965V44.8303H587.741V96.6974H585.154ZM488.332 30.2055L516.511 63.5417V29.2805H534.315V96.6974H522.627L491.292 59.1184V96.6974H473.489V29.2805H487.554L488.332 30.2055ZM416.448 80.2469H454.023V96.6974H398.741V29.2805H454.023V45.5441H416.448V55.1663H452.682V70.9862H416.448V80.2469ZM377.735 96.6974H362.521V56.2386L342.061 81.9132L322.104 56.3032V96.6974H304.301V29.4578H322.728L342.36 54.612L361.992 29.4578H380.323V96.6974H377.735Z" fill="white"/>
<path d="M205.691 34.6689L287.088 127.418V151.576L213.893 151.598L182.488 115.725V81.3989L182.543 79.6892L224.539 127.648L255.556 127.639L196.87 60.7692C181.841 78.1119 166.948 95.2947 151.907 112.652L149.171 115.786L149.183 115.792L135.196 131.933L113.557 107.481L72.7019 154.036H0V129.314L112.783 -8.79083e-06L149.326 41.7396V74.558L149.25 77.6063L112.816 36.1457L30.9594 130.001H62.0705L113.44 71.4643L134.999 95.8311C155.681 71.9726 176.272 48.2094 196.797 24.5288L205.691 34.6689Z" fill="white"/>
</svg>
